P3
10 10
255
48 0 0
48 0 0
48 0 0
48 0 0
48 0 0
48 0 0
255 106 0
0 0 0
255 106 0
48 0 0
48 0 0
48 0 0
48 0 0
48 0 0
48 0 0
48 0 0
48 0 0
255 106 0
48 0 0
48 0 0
48 0 0
48 0 0
48 0 0
48 0 0
48 0 0
48 0 0
48 0 0
48 0 0
48 0 0
48 0 0
48 0 0
48 0 0
48 0 0
48 0 0
48 0 0
48 0 0
48 0 0
48 0 0
48 0 0
48 0 0
48 0 0
48 0 0
48 0 0
48 0 0
48 0 0
48 0 0
48 0 0
48 0 0
48 0 0
48 0 0
48 0 0
48 0 0
48 0 0
48 0 0
48 0 0
48 0 0
48 0 0
48 0 0
48 0 0
48 0 0
48 0 0
48 0 0
48 0 0
48 0 0
48 0 0
48 0 0
48 0 0
48 0 0
48 0 0
48 0 0
48 0 0
48 0 0
48 0 0
48 0 0
48 0 0
48 0 0
48 0 0
48 0 0
48 0 0
48 0 0
48 0 0
48 0 0
48 0 0
48 0 0
48 0 0
48 0 0
48 0 0
48 0 0
48 0 0
48 0 0
48 0 0
48 0 0
48 0 0
48 0 0
48 0 0
48 0 0
48 0 0
48 0 0
48 0 0
48 0 0
