P3
10 10
255
48 0 0
48 0 0
48 0 0
48 0 0
48 0 0
48 0 0
166 111 2
0 0 0
166 111 2
48 0 0
48 0 0
48 0 0
48 0 0
48 0 0
48 0 0
48 0 0
48 0 0
166 111 2
48 0 0
48 0 0
48 0 0
48 0 0
48 0 0
48 0 0
48 0 0
48 0 0
48 0 0
48 0 0
48 0 0
48 0 0
48 0 0
48 0 0
48 0 0
48 0 0
48 0 0
48 0 0
48 0 0
48 0 0
48 0 0
48 0 0
48 0 0
48 0 0
48 0 0
48 0 0
48 0 0
48 0 0
48 0 0
48 0 0
48 0 0
48 0 0
48 0 0
48 0 0
48 0 0
48 0 0
48 0 0
48 0 0
48 0 0
48 0 0
48 0 0
48 0 0
48 0 0
48 0 0
48 0 0
48 0 0
48 0 0
48 0 0
48 0 0
48 0 0
48 0 0
48 0 0
48 0 0
48 0 0
48 0 0
48 0 0
48 0 0
48 0 0
48 0 0
48 0 0
48 0 0
48 0 0
48 0 0
48 0 0
48 0 0
48 0 0
48 0 0
48 0 0
48 0 0
48 0 0
48 0 0
48 0 0
48 0 0
48 0 0
48 0 0
48 0 0
48 0 0
48 0 0
48 0 0
48 0 0
48 0 0
48 0 0
